<?xml version="1.0" encoding="UTF-8" standalone="no"?>
<svg
   xmlns:dc="http://purl.org/dc/elements/1.1/"
   xmlns:cc="http://creativecommons.org/ns#"
   xmlns:rdf="http://www.w3.org/1999/02/22-rdf-syntax-ns#"
   xmlns:svg="http://www.w3.org/2000/svg"
   xmlns="http://www.w3.org/2000/svg"
   xmlns:sodipodi="http://sodipodi.sourceforge.net/DTD/sodipodi-0.dtd"
   xmlns:inkscape="http://www.inkscape.org/namespaces/inkscape"
   sodipodi:docname="pageAction.svg"
   inkscape:version="1.0 (4035a4fb49, 2020-05-01)"
   id="svg8"
   version="1.1"
   viewBox="0 0 79.375 79.374999"
   height="300"
   width="300">
  <defs
     id="defs2" />
  <sodipodi:namedview
     inkscape:document-rotation="0"
     inkscape:window-maximized="1"
     inkscape:window-y="-8"
     inkscape:window-x="-8"
     inkscape:window-height="738"
     inkscape:window-width="1280"
     units="px"
     showgrid="false"
     inkscape:current-layer="layer1"
     inkscape:document-units="mm"
     inkscape:cy="142.79194"
     inkscape:cx="93.060323"
     inkscape:zoom="1.4142136"
     inkscape:pageshadow="2"
     inkscape:pageopacity="0.0"
     borderopacity="1.0"
     bordercolor="#666666"
     pagecolor="#ffffff"
     id="base" />
  <metadata
     id="metadata5">
    <rdf:RDF>
      <cc:Work
         rdf:about="">
        <dc:format>image/svg+xml</dc:format>
        <dc:type
           rdf:resource="http://purl.org/dc/dcmitype/StillImage" />
        <dc:title></dc:title>
      </cc:Work>
    </rdf:RDF>
  </metadata>
  <g
     transform="translate(0,-259.95832)"
     id="layer1"
     inkscape:groupmode="layer"
     inkscape:label="Layer 1">
    <g
       inkscape:export-filename="C:\Users\Sicut\Documents\Some miniprojects\Vu Extension\Vu 1.2\icons\16x16.png"
       inkscape:export-ydpi="96"
       inkscape:export-xdpi="96"
       transform="matrix(0.8642605,0,0,0.86426042,1.4458228,8.7819063)"
       id="g935-7-7-8-1">
      <ellipse
         inkscape:export-ydpi="96"
         inkscape:export-xdpi="96"
         ry="2.435961"
         rx="2.4359608"
         style="opacity:1;vector-effect:none;fill:#9c27b0;fill-opacity:1;fill-rule:nonzero;stroke:#673ab7;stroke-width:0.0262929;stroke-linecap:butt;stroke-linejoin:miter;stroke-miterlimit:4;stroke-dasharray:none;stroke-dashoffset:0;stroke-opacity:1"
         id="path821-4-6-7-4"
         cx="2.5135417"
         cy="294.48645" />
      <g
         id="g856-3-9-6-3"
         transform="matrix(1.1308464,-0.1796682,0.2171997,1.5413117,-64.063592,-159.06674)"
         style="fill:#f4e86c;stroke:#002b22;stroke-width:0.0324808;stroke-miterlimit:4;stroke-dasharray:none">
        <path
           sodipodi:nodetypes="ccccccccccccccccccccccccccccsccccccccccccccccccccccccccccccccc"
           inkscape:connector-curvature="0"
           id="path887"
           style="font-style:normal;font-variant:normal;font-weight:normal;font-stretch:normal;font-size:4.23333px;line-height:1.25;font-family:'Penguin Attack';-inkscape-font-specification:'Penguin Attack, Normal';font-variant-ligatures:normal;font-variant-caps:normal;font-variant-numeric:normal;font-feature-settings:normal;text-align:start;letter-spacing:0px;word-spacing:0px;writing-mode:lr-tb;text-anchor:start;fill:#673ab7;fill-opacity:1;stroke:none;stroke-width:0.035684;stroke-linecap:butt;stroke-linejoin:miter;stroke-miterlimit:4;stroke-dasharray:none;stroke-dashoffset:0;stroke-opacity:1"
           d="m 1.3292749,295.11364 c 0.057753,0.002 0.1152368,0.0128 0.1723314,0.0293 0.058261,0.0163 0.1078987,0.0428 0.1488924,0.079 0.2889316,0.28158 0.1194709,0.4539 -0.090029,0.4446 -0.4414413,-0.0284 -1.16814545,-0.40794 -1.42342432,-0.95387 -0.012311,-0.0539 -0.0126919,-0.10616 -0.001135,-0.15659 0.0115498,-0.0505 0.0396673,-0.0961 0.084364,-0.13666 0.071975,-0.0654 0.15852554,-0.10526 0.25965959,-0.11944 0.10104038,-0.0162 0.210765,-0.0131 0.32919365,0.01 0.11840057,0.0226 0.24365668,0.0612 0.37575488,0.11547 0.1321291,0.0543 0.2657241,0.11782 0.4007847,0.19046 0.1361875,0.0717 0.2714737,0.14935 0.4058671,0.23312 0.1344007,0.0838 0.2625634,0.16692 0.3844918,0.24941 0.1229899,0.0815 0.2373772,0.15934 0.3431624,0.23341 0.1068397,0.0732 0.2002925,0.13632 0.2803699,0.18961 0.081183,0.0522 0.1460076,0.091 0.1944728,0.11637 0.048372,0.0233 0.076771,0.0268 0.085224,0.0111 0.012601,-0.024 0.00922,-0.0662 -0.010112,-0.1264 -0.019341,-0.0602 -0.049884,-0.13228 -0.09163,-0.2162 -0.04182,-0.0859 -0.092484,-0.18074 -0.1519786,-0.28428 -0.059565,-0.10558 -0.1232621,-0.2158 -0.1910968,-0.33066 -0.069001,-0.11593 -0.1403579,-0.23391 -0.2140707,-0.35395 -0.073752,-0.12212 -0.1451489,-0.24112 -0.214191,-0.35698 -0.069001,-0.11592 -0.1333265,-0.22768 -0.1929778,-0.33528 -0.05963,-0.10762 -0.1104099,-0.20543 -0.1523423,-0.29342 -0.04311,-0.089 -0.074403,-0.16566 -0.093882,-0.22991 -0.019497,-0.0642 -0.023662,-0.11194 -0.012495,-0.14314 0.015734,-0.002 0.038092,-0.007 0.067054,-0.0169 0.027835,-0.0107 0.057328,-0.0216 0.08847,-0.033 0.031137,-0.0115 0.6645846,0.37408 0.6924769,0.36346 0.027835,-0.0107 0.049585,-0.0177 0.065229,-0.0215 -0.039192,0.0398 -0.055028,0.0961 -0.047488,0.16932 0.00739,0.0731 0.03055,0.1582 0.069473,0.25526 0.037682,0.0959 0.088788,0.20197 0.153301,0.31775 0.064497,0.11581 0.1348466,0.23681 0.2110443,0.363 0.077258,0.12523 0.1574748,0.253 0.2406494,0.38335 0.083057,0.12837 0.1626935,0.25565 0.2389076,0.38182 0.07503,0.12514 0.1436565,0.24559 0.2058791,0.36137 0.062217,0.11577 0.1116446,0.22217 0.1482831,0.31918 0.035464,0.0961 0.054092,0.18097 0.055891,0.25497 0.00291,0.0731 -0.017458,0.12937 -0.061085,0.16904 -0.052333,0.0476 -0.1216779,0.0655 -0.2080371,0.0537 -0.08637,-0.0138 -0.1860014,-0.0474 -0.2988798,-0.10024 -0.1128965,-0.0551 -0.2359497,-0.12386 -0.3691705,-0.2066 -0.1332864,-0.0848 -0.2724558,-0.17473 -0.4175107,-0.26984 -0.1449949,-0.0951 -0.292825,-0.18983 -0.4434845,-0.28402 -0.1507309,-0.0963 -0.2993125,-0.18185 -0.4457464,-0.25679 -0.1465439,-0.0769 -0.2891024,-0.13856 -0.4276711,-0.18492 -0.1374971,-0.0473 -0.2660858,-0.0702 -0.3857628,-0.0686 -0.059849,0.002 -0.10052211,0.016 -0.12209042,0.0416 -0.0227976,0.0247 -0.0323125,0.0555 -0.0285593,0.0921 0.004804,0.0356 0.0198617,0.0734 0.0451696,0.1134 0.0241245,0.039 0.0531775,0.0734 0.0871701,0.10361 0.033938,0.0301 0.07746,0.0588 0.1305666,0.0862 0.052937,0.0254 0.1051894,0.0461 0.15676,0.0624 0.0514,0.0142 0.096286,0.0206 0.1346617,0.0193 0.038305,-0.003 0.059635,-0.0186 0.064003,-0.0462 0.00254,-0.0212 -0.00266,-0.0386 -0.015592,-0.0519 -0.014182,-0.0144 -0.032706,-0.0259 -0.055569,-0.0345 -0.022917,-0.009 -0.047453,-0.0146 -0.073612,-0.0182 -0.027299,-0.005 -0.05174,-0.008 -0.073284,-0.01 z" />
        <path
           d="m 1.4721705,295.10818 c 0.052731,0.002 0.1051313,0.0116 0.1571105,0.0274 0.053042,0.0153 0.098101,0.0406 0.1351624,0.0756 0.2609129,0.27066 0.1042734,0.43858 -0.086996,0.43094 -0.4029319,-0.0246 -1.062687,-0.38728 -1.29002906,-0.91403 -0.0106687,-0.0522 -0.0104568,-0.10266 6.401e-4,-0.15159 0.0110915,-0.0489 0.0372636,-0.0932 0.0785257,-0.13283 0.0664477,-0.0637 0.145934,-0.10291 0.23846737,-0.11729 0.0924662,-0.0165 0.1926735,-0.0138 0.30060539,0.008 0.1079173,0.0213 0.221915,0.0577 0.3419999,0.10931 0.1201111,0.0516 0.2414669,0.1123 0.3640621,0.18175 0.1236372,0.0686 0.2463817,0.1428 0.3682473,0.223 0.1218757,0.0803 0.2380538,0.15986 0.3485481,0.23892 0.1114742,0.0781 0.2151284,0.15269 0.3109668,0.22371 0.096809,0.0701 0.1814996,0.13065 0.2540766,0.1817 0.073601,0.05 0.1324012,0.0873 0.1763969,0.11137 0.043935,0.0222 0.069836,0.0253 0.077723,0.01 0.011768,-0.0233 0.00913,-0.0642 -0.0079,-0.12227 -0.01702,-0.0582 -0.04415,-0.12772 -0.081386,-0.20867 -0.037282,-0.0829 -0.082544,-0.17435 -0.1357826,-0.27418 -0.053282,-0.10182 -0.1102842,-0.20809 -0.1710192,-0.31881 -0.061788,-0.11179 -0.1257085,-0.22553 -0.1917565,-0.34124 -0.066061,-0.11771 -0.1300063,-0.23242 -0.1918334,-0.34414 -0.061788,-0.11176 -0.1193511,-0.21951 -0.1726887,-0.3233 -0.053317,-0.10378 -0.098657,-0.1981 -0.1360165,-0.283 -0.038425,-0.0858 -0.06619,-0.15987 -0.083298,-0.22195 -0.017122,-0.062 -0.020416,-0.10818 -0.00988,-0.13846 0.014398,-0.002 0.034898,-0.006 0.061434,-0.0167 0.025542,-0.0104 0.052593,-0.0214 0.081168,-0.0325 0.028566,-0.0114 0.6030664,0.35774 0.6286583,0.34728 0.025541,-0.0104 0.04548,-0.0175 0.059819,-0.0212 -0.036226,0.0388 -0.051294,0.0934 -0.045192,0.1642 0.00598,0.0708 0.026211,0.15294 0.060727,0.24664 0.033396,0.0927 0.078942,0.19491 0.1366319,0.30655 0.057679,0.11171 0.1206421,0.22836 0.1888951,0.35001 0.069232,0.12073 0.1411387,0.24388 0.2157196,0.3695 0.074492,0.1237 0.1458775,0.2464 0.214145,0.36803 0.067197,0.12064 0.1285959,0.2368 0.1841942,0.34846 0.055593,0.11166 0.099604,0.21433 0.1320328,0.30797 0.031367,0.0928 0.047472,0.17481 0.048325,0.24644 0.00187,0.0707 -0.017333,0.12535 -0.05761,0.16403 -0.048313,0.0464 -0.1118515,0.0641 -0.1906119,0.0532 -0.078743,-0.0127 -0.1693943,-0.0446 -0.2719443,-0.0952 -0.1025355,-0.0525 -0.214205,-0.11837 -0.3350113,-0.1976 -0.1208414,-0.0812 -0.247007,-0.16736 -0.3784907,-0.25847 -0.1314293,-0.0912 -0.2654511,-0.18184 -0.4020645,-0.27204 -0.1366568,-0.0922 -0.2714632,-0.17407 -0.4044228,-0.24566 -0.1330337,-0.0733 -0.2626007,-0.13225 -0.3886805,-0.17621 -0.125095,-0.045 -0.2423075,-0.0662 -0.3516437,-0.0638 -0.05474,6.9e-4 -0.091991,0.0162 -0.1119673,0.0411 -0.021089,0.024 -0.030109,0.0539 -0.027073,0.0894 0.00401,0.0345 0.017357,0.0709 0.040046,0.10948 0.021621,0.0376 0.047795,0.0709 0.078515,0.0996 0.030682,0.029 0.070125,0.0563 0.1183443,0.0826 0.048087,0.0243 0.09559,0.0439 0.1425268,0.0595 0.046803,0.0135 0.08773,0.0193 0.1228016,0.0178 0.035042,-0.003 0.054675,-0.0183 0.058963,-0.045 0.00256,-0.0206 -0.00201,-0.0374 -0.013682,-0.0502 -0.012806,-0.0139 -0.029601,-0.0249 -0.050395,-0.0332 -0.020843,-0.009 -0.04319,-0.0138 -0.067044,-0.017 -0.024893,-0.005 -0.047188,-0.008 -0.066858,-0.01 z"
           style="font-style:normal;font-variant:normal;font-weight:normal;font-stretch:normal;font-size:4.23333px;line-height:1.25;font-family:'Penguin Attack';-inkscape-font-specification:'Penguin Attack, Normal';font-variant-ligatures:normal;font-variant-caps:normal;font-variant-numeric:normal;font-feature-settings:normal;text-align:start;letter-spacing:0px;word-spacing:0px;writing-mode:lr-tb;text-anchor:start;fill:#ffffff;fill-opacity:1;stroke:none;stroke-width:0.0335528;stroke-linecap:butt;stroke-linejoin:miter;stroke-miterlimit:4;stroke-dasharray:none;stroke-dashoffset:0;stroke-opacity:1"
           id="path847-9-1-5-6"
           inkscape:connector-curvature="0"
           sodipodi:nodetypes="ccccccccccccccccccccccccccccsccccccccccccccccccccccccccccccccc" />
      </g>
      <ellipse
         transform="rotate(-29.584938)"
         ry="0.39420444"
         rx="0.42848295"
         cy="257.38953"
         cx="-141.48131"
         id="path889-4"
         style="opacity:1;vector-effect:none;fill:#ffffff;fill-opacity:1;fill-rule:nonzero;stroke:none;stroke-width:0.0548458;stroke-linecap:butt;stroke-linejoin:miter;stroke-miterlimit:4;stroke-dasharray:none;stroke-dashoffset:0;stroke-opacity:1" />
    </g>
    <g
       inkscape:export-filename="C:\Users\Sicut\Documents\Some miniprojects\Vu Extension\Vu 1.2\icons\32x32.png"
       id="g881"
       transform="matrix(1.728521,0,0,1.7285209,13.750811,-239.49847)"
       inkscape:export-xdpi="96"
       inkscape:export-ydpi="96">
      <ellipse
         cy="294.48645"
         cx="2.5135417"
         id="ellipse871"
         style="opacity:1;vector-effect:none;fill:#9c27b0;fill-opacity:1;fill-rule:nonzero;stroke:#673ab7;stroke-width:0.0262929;stroke-linecap:butt;stroke-linejoin:miter;stroke-miterlimit:4;stroke-dasharray:none;stroke-dashoffset:0;stroke-opacity:1"
         rx="2.4359608"
         ry="2.435961"
         inkscape:export-xdpi="96"
         inkscape:export-ydpi="96" />
      <g
         style="fill:#f4e86c;stroke:#002b22;stroke-width:0.0324808;stroke-miterlimit:4;stroke-dasharray:none"
         transform="matrix(1.1308464,-0.1796682,0.2171997,1.5413117,-64.063592,-159.06674)"
         id="g877">
        <path
           d="m 1.3292749,295.11364 c 0.057753,0.002 0.1152368,0.0128 0.1723314,0.0293 0.058261,0.0163 0.1078987,0.0428 0.1488924,0.079 0.2889316,0.28158 0.1194709,0.4539 -0.090029,0.4446 -0.4414413,-0.0284 -1.16814545,-0.40794 -1.42342432,-0.95387 -0.012311,-0.0539 -0.0126919,-0.10616 -0.001135,-0.15659 0.0115498,-0.0505 0.0396673,-0.0961 0.084364,-0.13666 0.071975,-0.0654 0.15852554,-0.10526 0.25965959,-0.11944 0.10104038,-0.0162 0.210765,-0.0131 0.32919365,0.01 0.11840057,0.0226 0.24365668,0.0612 0.37575488,0.11547 0.1321291,0.0543 0.2657241,0.11782 0.4007847,0.19046 0.1361875,0.0717 0.2714737,0.14935 0.4058671,0.23312 0.1344007,0.0838 0.2625634,0.16692 0.3844918,0.24941 0.1229899,0.0815 0.2373772,0.15934 0.3431624,0.23341 0.1068397,0.0732 0.2002925,0.13632 0.2803699,0.18961 0.081183,0.0522 0.1460076,0.091 0.1944728,0.11637 0.048372,0.0233 0.076771,0.0268 0.085224,0.0111 0.012601,-0.024 0.00922,-0.0662 -0.010112,-0.1264 -0.019341,-0.0602 -0.049884,-0.13228 -0.09163,-0.2162 -0.04182,-0.0859 -0.092484,-0.18074 -0.1519786,-0.28428 -0.059565,-0.10558 -0.1232621,-0.2158 -0.1910968,-0.33066 -0.069001,-0.11593 -0.1403579,-0.23391 -0.2140707,-0.35395 -0.073752,-0.12212 -0.1451489,-0.24112 -0.214191,-0.35698 -0.069001,-0.11592 -0.1333265,-0.22768 -0.1929778,-0.33528 -0.05963,-0.10762 -0.1104099,-0.20543 -0.1523423,-0.29342 -0.04311,-0.089 -0.074403,-0.16566 -0.093882,-0.22991 -0.019497,-0.0642 -0.023662,-0.11194 -0.012495,-0.14314 0.015734,-0.002 0.038092,-0.007 0.067054,-0.0169 0.027835,-0.0107 0.057328,-0.0216 0.08847,-0.033 0.031137,-0.0115 0.6645846,0.37408 0.6924769,0.36346 0.027835,-0.0107 0.049585,-0.0177 0.065229,-0.0215 -0.039192,0.0398 -0.055028,0.0961 -0.047488,0.16932 0.00739,0.0731 0.03055,0.1582 0.069473,0.25526 0.037682,0.0959 0.088788,0.20197 0.153301,0.31775 0.064497,0.11581 0.1348466,0.23681 0.2110443,0.363 0.077258,0.12523 0.1574748,0.253 0.2406494,0.38335 0.083057,0.12837 0.1626935,0.25565 0.2389076,0.38182 0.07503,0.12514 0.1436565,0.24559 0.2058791,0.36137 0.062217,0.11577 0.1116446,0.22217 0.1482831,0.31918 0.035464,0.0961 0.054092,0.18097 0.055891,0.25497 0.00291,0.0731 -0.017458,0.12937 -0.061085,0.16904 -0.052333,0.0476 -0.1216779,0.0655 -0.2080371,0.0537 -0.08637,-0.0138 -0.1860014,-0.0474 -0.2988798,-0.10024 -0.1128965,-0.0551 -0.2359497,-0.12386 -0.3691705,-0.2066 -0.1332864,-0.0848 -0.2724558,-0.17473 -0.4175107,-0.26984 -0.1449949,-0.0951 -0.292825,-0.18983 -0.4434845,-0.28402 -0.1507309,-0.0963 -0.2993125,-0.18185 -0.4457464,-0.25679 -0.1465439,-0.0769 -0.2891024,-0.13856 -0.4276711,-0.18492 -0.1374971,-0.0473 -0.2660858,-0.0702 -0.3857628,-0.0686 -0.059849,0.002 -0.10052211,0.016 -0.12209042,0.0416 -0.0227976,0.0247 -0.0323125,0.0555 -0.0285593,0.0921 0.004804,0.0356 0.0198617,0.0734 0.0451696,0.1134 0.0241245,0.039 0.0531775,0.0734 0.0871701,0.10361 0.033938,0.0301 0.07746,0.0588 0.1305666,0.0862 0.052937,0.0254 0.1051894,0.0461 0.15676,0.0624 0.0514,0.0142 0.096286,0.0206 0.1346617,0.0193 0.038305,-0.003 0.059635,-0.0186 0.064003,-0.0462 0.00254,-0.0212 -0.00266,-0.0386 -0.015592,-0.0519 -0.014182,-0.0144 -0.032706,-0.0259 -0.055569,-0.0345 -0.022917,-0.009 -0.047453,-0.0146 -0.073612,-0.0182 -0.027299,-0.005 -0.05174,-0.008 -0.073284,-0.01 z"
           style="font-style:normal;font-variant:normal;font-weight:normal;font-stretch:normal;font-size:4.23333px;line-height:1.25;font-family:'Penguin Attack';-inkscape-font-specification:'Penguin Attack, Normal';font-variant-ligatures:normal;font-variant-caps:normal;font-variant-numeric:normal;font-feature-settings:normal;text-align:start;letter-spacing:0px;word-spacing:0px;writing-mode:lr-tb;text-anchor:start;fill:#673ab7;fill-opacity:1;stroke:none;stroke-width:0.035684;stroke-linecap:butt;stroke-linejoin:miter;stroke-miterlimit:4;stroke-dasharray:none;stroke-dashoffset:0;stroke-opacity:1"
           id="path873"
           inkscape:connector-curvature="0"
           sodipodi:nodetypes="ccccccccccccccccccccccccccccsccccccccccccccccccccccccccccccccc" />
        <path
           sodipodi:nodetypes="ccccccccccccccccccccccccccccsccccccccccccccccccccccccccccccccc"
           inkscape:connector-curvature="0"
           id="path875"
           style="font-style:normal;font-variant:normal;font-weight:normal;font-stretch:normal;font-size:4.23333px;line-height:1.25;font-family:'Penguin Attack';-inkscape-font-specification:'Penguin Attack, Normal';font-variant-ligatures:normal;font-variant-caps:normal;font-variant-numeric:normal;font-feature-settings:normal;text-align:start;letter-spacing:0px;word-spacing:0px;writing-mode:lr-tb;text-anchor:start;fill:#ffffff;fill-opacity:1;stroke:none;stroke-width:0.0335528;stroke-linecap:butt;stroke-linejoin:miter;stroke-miterlimit:4;stroke-dasharray:none;stroke-dashoffset:0;stroke-opacity:1"
           d="m 1.4721705,295.10818 c 0.052731,0.002 0.1051313,0.0116 0.1571105,0.0274 0.053042,0.0153 0.098101,0.0406 0.1351624,0.0756 0.2609129,0.27066 0.1042734,0.43858 -0.086996,0.43094 -0.4029319,-0.0246 -1.062687,-0.38728 -1.29002906,-0.91403 -0.0106687,-0.0522 -0.0104568,-0.10266 6.401e-4,-0.15159 0.0110915,-0.0489 0.0372636,-0.0932 0.0785257,-0.13283 0.0664477,-0.0637 0.145934,-0.10291 0.23846737,-0.11729 0.0924662,-0.0165 0.1926735,-0.0138 0.30060539,0.008 0.1079173,0.0213 0.221915,0.0577 0.3419999,0.10931 0.1201111,0.0516 0.2414669,0.1123 0.3640621,0.18175 0.1236372,0.0686 0.2463817,0.1428 0.3682473,0.223 0.1218757,0.0803 0.2380538,0.15986 0.3485481,0.23892 0.1114742,0.0781 0.2151284,0.15269 0.3109668,0.22371 0.096809,0.0701 0.1814996,0.13065 0.2540766,0.1817 0.073601,0.05 0.1324012,0.0873 0.1763969,0.11137 0.043935,0.0222 0.069836,0.0253 0.077723,0.01 0.011768,-0.0233 0.00913,-0.0642 -0.0079,-0.12227 -0.01702,-0.0582 -0.04415,-0.12772 -0.081386,-0.20867 -0.037282,-0.0829 -0.082544,-0.17435 -0.1357826,-0.27418 -0.053282,-0.10182 -0.1102842,-0.20809 -0.1710192,-0.31881 -0.061788,-0.11179 -0.1257085,-0.22553 -0.1917565,-0.34124 -0.066061,-0.11771 -0.1300063,-0.23242 -0.1918334,-0.34414 -0.061788,-0.11176 -0.1193511,-0.21951 -0.1726887,-0.3233 -0.053317,-0.10378 -0.098657,-0.1981 -0.1360165,-0.283 -0.038425,-0.0858 -0.06619,-0.15987 -0.083298,-0.22195 -0.017122,-0.062 -0.020416,-0.10818 -0.00988,-0.13846 0.014398,-0.002 0.034898,-0.006 0.061434,-0.0167 0.025542,-0.0104 0.052593,-0.0214 0.081168,-0.0325 0.028566,-0.0114 0.6030664,0.35774 0.6286583,0.34728 0.025541,-0.0104 0.04548,-0.0175 0.059819,-0.0212 -0.036226,0.0388 -0.051294,0.0934 -0.045192,0.1642 0.00598,0.0708 0.026211,0.15294 0.060727,0.24664 0.033396,0.0927 0.078942,0.19491 0.1366319,0.30655 0.057679,0.11171 0.1206421,0.22836 0.1888951,0.35001 0.069232,0.12073 0.1411387,0.24388 0.2157196,0.3695 0.074492,0.1237 0.1458775,0.2464 0.214145,0.36803 0.067197,0.12064 0.1285959,0.2368 0.1841942,0.34846 0.055593,0.11166 0.099604,0.21433 0.1320328,0.30797 0.031367,0.0928 0.047472,0.17481 0.048325,0.24644 0.00187,0.0707 -0.017333,0.12535 -0.05761,0.16403 -0.048313,0.0464 -0.1118515,0.0641 -0.1906119,0.0532 -0.078743,-0.0127 -0.1693943,-0.0446 -0.2719443,-0.0952 -0.1025355,-0.0525 -0.214205,-0.11837 -0.3350113,-0.1976 -0.1208414,-0.0812 -0.247007,-0.16736 -0.3784907,-0.25847 -0.1314293,-0.0912 -0.2654511,-0.18184 -0.4020645,-0.27204 -0.1366568,-0.0922 -0.2714632,-0.17407 -0.4044228,-0.24566 -0.1330337,-0.0733 -0.2626007,-0.13225 -0.3886805,-0.17621 -0.125095,-0.045 -0.2423075,-0.0662 -0.3516437,-0.0638 -0.05474,6.9e-4 -0.091991,0.0162 -0.1119673,0.0411 -0.021089,0.024 -0.030109,0.0539 -0.027073,0.0894 0.00401,0.0345 0.017357,0.0709 0.040046,0.10948 0.021621,0.0376 0.047795,0.0709 0.078515,0.0996 0.030682,0.029 0.070125,0.0563 0.1183443,0.0826 0.048087,0.0243 0.09559,0.0439 0.1425268,0.0595 0.046803,0.0135 0.08773,0.0193 0.1228016,0.0178 0.035042,-0.003 0.054675,-0.0183 0.058963,-0.045 0.00256,-0.0206 -0.00201,-0.0374 -0.013682,-0.0502 -0.012806,-0.0139 -0.029601,-0.0249 -0.050395,-0.0332 -0.020843,-0.009 -0.04319,-0.0138 -0.067044,-0.017 -0.024893,-0.005 -0.047188,-0.008 -0.066858,-0.01 z" />
      </g>
      <ellipse
         style="opacity:1;vector-effect:none;fill:#ffffff;fill-opacity:1;fill-rule:nonzero;stroke:none;stroke-width:0.0548458;stroke-linecap:butt;stroke-linejoin:miter;stroke-miterlimit:4;stroke-dasharray:none;stroke-dashoffset:0;stroke-opacity:1"
         id="ellipse879"
         cx="-141.48131"
         cy="257.38953"
         rx="0.42848295"
         ry="0.39420444"
         transform="rotate(-29.584938)" />
    </g>
    <g
       inkscape:export-filename="C:\Users\Sicut\Documents\Some miniprojects\Vu Extension\Vu 1.2\icons\48x48.png"
       inkscape:export-ydpi="96"
       inkscape:export-xdpi="96"
       transform="matrix(2.5927815,0,0,2.5927814,11.624324,-474.14891)"
       id="g894">
      <ellipse
         inkscape:export-ydpi="96"
         inkscape:export-xdpi="96"
         ry="2.435961"
         rx="2.4359608"
         style="opacity:1;vector-effect:none;fill:#9c27b0;fill-opacity:1;fill-rule:nonzero;stroke:#673ab7;stroke-width:0.0262929;stroke-linecap:butt;stroke-linejoin:miter;stroke-miterlimit:4;stroke-dasharray:none;stroke-dashoffset:0;stroke-opacity:1"
         id="ellipse883"
         cx="2.5135417"
         cy="294.48645" />
      <g
         id="g890"
         transform="matrix(1.1308464,-0.1796682,0.2171997,1.5413117,-64.063592,-159.06674)"
         style="fill:#f4e86c;stroke:#002b22;stroke-width:0.0324808;stroke-miterlimit:4;stroke-dasharray:none">
        <path
           sodipodi:nodetypes="ccccccccccccccccccccccccccccsccccccccccccccccccccccccccccccccc"
           inkscape:connector-curvature="0"
           id="path885"
           style="font-style:normal;font-variant:normal;font-weight:normal;font-stretch:normal;font-size:4.23333px;line-height:1.25;font-family:'Penguin Attack';-inkscape-font-specification:'Penguin Attack, Normal';font-variant-ligatures:normal;font-variant-caps:normal;font-variant-numeric:normal;font-feature-settings:normal;text-align:start;letter-spacing:0px;word-spacing:0px;writing-mode:lr-tb;text-anchor:start;fill:#673ab7;fill-opacity:1;stroke:none;stroke-width:0.035684;stroke-linecap:butt;stroke-linejoin:miter;stroke-miterlimit:4;stroke-dasharray:none;stroke-dashoffset:0;stroke-opacity:1"
           d="m 1.3292749,295.11364 c 0.057753,0.002 0.1152368,0.0128 0.1723314,0.0293 0.058261,0.0163 0.1078987,0.0428 0.1488924,0.079 0.2889316,0.28158 0.1194709,0.4539 -0.090029,0.4446 -0.4414413,-0.0284 -1.16814545,-0.40794 -1.42342432,-0.95387 -0.012311,-0.0539 -0.0126919,-0.10616 -0.001135,-0.15659 0.0115498,-0.0505 0.0396673,-0.0961 0.084364,-0.13666 0.071975,-0.0654 0.15852554,-0.10526 0.25965959,-0.11944 0.10104038,-0.0162 0.210765,-0.0131 0.32919365,0.01 0.11840057,0.0226 0.24365668,0.0612 0.37575488,0.11547 0.1321291,0.0543 0.2657241,0.11782 0.4007847,0.19046 0.1361875,0.0717 0.2714737,0.14935 0.4058671,0.23312 0.1344007,0.0838 0.2625634,0.16692 0.3844918,0.24941 0.1229899,0.0815 0.2373772,0.15934 0.3431624,0.23341 0.1068397,0.0732 0.2002925,0.13632 0.2803699,0.18961 0.081183,0.0522 0.1460076,0.091 0.1944728,0.11637 0.048372,0.0233 0.076771,0.0268 0.085224,0.0111 0.012601,-0.024 0.00922,-0.0662 -0.010112,-0.1264 -0.019341,-0.0602 -0.049884,-0.13228 -0.09163,-0.2162 -0.04182,-0.0859 -0.092484,-0.18074 -0.1519786,-0.28428 -0.059565,-0.10558 -0.1232621,-0.2158 -0.1910968,-0.33066 -0.069001,-0.11593 -0.1403579,-0.23391 -0.2140707,-0.35395 -0.073752,-0.12212 -0.1451489,-0.24112 -0.214191,-0.35698 -0.069001,-0.11592 -0.1333265,-0.22768 -0.1929778,-0.33528 -0.05963,-0.10762 -0.1104099,-0.20543 -0.1523423,-0.29342 -0.04311,-0.089 -0.074403,-0.16566 -0.093882,-0.22991 -0.019497,-0.0642 -0.023662,-0.11194 -0.012495,-0.14314 0.015734,-0.002 0.038092,-0.007 0.067054,-0.0169 0.027835,-0.0107 0.057328,-0.0216 0.08847,-0.033 0.031137,-0.0115 0.6645846,0.37408 0.6924769,0.36346 0.027835,-0.0107 0.049585,-0.0177 0.065229,-0.0215 -0.039192,0.0398 -0.055028,0.0961 -0.047488,0.16932 0.00739,0.0731 0.03055,0.1582 0.069473,0.25526 0.037682,0.0959 0.088788,0.20197 0.153301,0.31775 0.064497,0.11581 0.1348466,0.23681 0.2110443,0.363 0.077258,0.12523 0.1574748,0.253 0.2406494,0.38335 0.083057,0.12837 0.1626935,0.25565 0.2389076,0.38182 0.07503,0.12514 0.1436565,0.24559 0.2058791,0.36137 0.062217,0.11577 0.1116446,0.22217 0.1482831,0.31918 0.035464,0.0961 0.054092,0.18097 0.055891,0.25497 0.00291,0.0731 -0.017458,0.12937 -0.061085,0.16904 -0.052333,0.0476 -0.1216779,0.0655 -0.2080371,0.0537 -0.08637,-0.0138 -0.1860014,-0.0474 -0.2988798,-0.10024 -0.1128965,-0.0551 -0.2359497,-0.12386 -0.3691705,-0.2066 -0.1332864,-0.0848 -0.2724558,-0.17473 -0.4175107,-0.26984 -0.1449949,-0.0951 -0.292825,-0.18983 -0.4434845,-0.28402 -0.1507309,-0.0963 -0.2993125,-0.18185 -0.4457464,-0.25679 -0.1465439,-0.0769 -0.2891024,-0.13856 -0.4276711,-0.18492 -0.1374971,-0.0473 -0.2660858,-0.0702 -0.3857628,-0.0686 -0.059849,0.002 -0.10052211,0.016 -0.12209042,0.0416 -0.0227976,0.0247 -0.0323125,0.0555 -0.0285593,0.0921 0.004804,0.0356 0.0198617,0.0734 0.0451696,0.1134 0.0241245,0.039 0.0531775,0.0734 0.0871701,0.10361 0.033938,0.0301 0.07746,0.0588 0.1305666,0.0862 0.052937,0.0254 0.1051894,0.0461 0.15676,0.0624 0.0514,0.0142 0.096286,0.0206 0.1346617,0.0193 0.038305,-0.003 0.059635,-0.0186 0.064003,-0.0462 0.00254,-0.0212 -0.00266,-0.0386 -0.015592,-0.0519 -0.014182,-0.0144 -0.032706,-0.0259 -0.055569,-0.0345 -0.022917,-0.009 -0.047453,-0.0146 -0.073612,-0.0182 -0.027299,-0.005 -0.05174,-0.008 -0.073284,-0.01 z" />
        <path
           d="m 1.4721705,295.10818 c 0.052731,0.002 0.1051313,0.0116 0.1571105,0.0274 0.053042,0.0153 0.098101,0.0406 0.1351624,0.0756 0.2609129,0.27066 0.1042734,0.43858 -0.086996,0.43094 -0.4029319,-0.0246 -1.062687,-0.38728 -1.29002906,-0.91403 -0.0106687,-0.0522 -0.0104568,-0.10266 6.401e-4,-0.15159 0.0110915,-0.0489 0.0372636,-0.0932 0.0785257,-0.13283 0.0664477,-0.0637 0.145934,-0.10291 0.23846737,-0.11729 0.0924662,-0.0165 0.1926735,-0.0138 0.30060539,0.008 0.1079173,0.0213 0.221915,0.0577 0.3419999,0.10931 0.1201111,0.0516 0.2414669,0.1123 0.3640621,0.18175 0.1236372,0.0686 0.2463817,0.1428 0.3682473,0.223 0.1218757,0.0803 0.2380538,0.15986 0.3485481,0.23892 0.1114742,0.0781 0.2151284,0.15269 0.3109668,0.22371 0.096809,0.0701 0.1814996,0.13065 0.2540766,0.1817 0.073601,0.05 0.1324012,0.0873 0.1763969,0.11137 0.043935,0.0222 0.069836,0.0253 0.077723,0.01 0.011768,-0.0233 0.00913,-0.0642 -0.0079,-0.12227 -0.01702,-0.0582 -0.04415,-0.12772 -0.081386,-0.20867 -0.037282,-0.0829 -0.082544,-0.17435 -0.1357826,-0.27418 -0.053282,-0.10182 -0.1102842,-0.20809 -0.1710192,-0.31881 -0.061788,-0.11179 -0.1257085,-0.22553 -0.1917565,-0.34124 -0.066061,-0.11771 -0.1300063,-0.23242 -0.1918334,-0.34414 -0.061788,-0.11176 -0.1193511,-0.21951 -0.1726887,-0.3233 -0.053317,-0.10378 -0.098657,-0.1981 -0.1360165,-0.283 -0.038425,-0.0858 -0.06619,-0.15987 -0.083298,-0.22195 -0.017122,-0.062 -0.020416,-0.10818 -0.00988,-0.13846 0.014398,-0.002 0.034898,-0.006 0.061434,-0.0167 0.025542,-0.0104 0.052593,-0.0214 0.081168,-0.0325 0.028566,-0.0114 0.6030664,0.35774 0.6286583,0.34728 0.025541,-0.0104 0.04548,-0.0175 0.059819,-0.0212 -0.036226,0.0388 -0.051294,0.0934 -0.045192,0.1642 0.00598,0.0708 0.026211,0.15294 0.060727,0.24664 0.033396,0.0927 0.078942,0.19491 0.1366319,0.30655 0.057679,0.11171 0.1206421,0.22836 0.1888951,0.35001 0.069232,0.12073 0.1411387,0.24388 0.2157196,0.3695 0.074492,0.1237 0.1458775,0.2464 0.214145,0.36803 0.067197,0.12064 0.1285959,0.2368 0.1841942,0.34846 0.055593,0.11166 0.099604,0.21433 0.1320328,0.30797 0.031367,0.0928 0.047472,0.17481 0.048325,0.24644 0.00187,0.0707 -0.017333,0.12535 -0.05761,0.16403 -0.048313,0.0464 -0.1118515,0.0641 -0.1906119,0.0532 -0.078743,-0.0127 -0.1693943,-0.0446 -0.2719443,-0.0952 -0.1025355,-0.0525 -0.214205,-0.11837 -0.3350113,-0.1976 -0.1208414,-0.0812 -0.247007,-0.16736 -0.3784907,-0.25847 -0.1314293,-0.0912 -0.2654511,-0.18184 -0.4020645,-0.27204 -0.1366568,-0.0922 -0.2714632,-0.17407 -0.4044228,-0.24566 -0.1330337,-0.0733 -0.2626007,-0.13225 -0.3886805,-0.17621 -0.125095,-0.045 -0.2423075,-0.0662 -0.3516437,-0.0638 -0.05474,6.9e-4 -0.091991,0.0162 -0.1119673,0.0411 -0.021089,0.024 -0.030109,0.0539 -0.027073,0.0894 0.00401,0.0345 0.017357,0.0709 0.040046,0.10948 0.021621,0.0376 0.047795,0.0709 0.078515,0.0996 0.030682,0.029 0.070125,0.0563 0.1183443,0.0826 0.048087,0.0243 0.09559,0.0439 0.1425268,0.0595 0.046803,0.0135 0.08773,0.0193 0.1228016,0.0178 0.035042,-0.003 0.054675,-0.0183 0.058963,-0.045 0.00256,-0.0206 -0.00201,-0.0374 -0.013682,-0.0502 -0.012806,-0.0139 -0.029601,-0.0249 -0.050395,-0.0332 -0.020843,-0.009 -0.04319,-0.0138 -0.067044,-0.017 -0.024893,-0.005 -0.047188,-0.008 -0.066858,-0.01 z"
           style="font-style:normal;font-variant:normal;font-weight:normal;font-stretch:normal;font-size:4.23333px;line-height:1.25;font-family:'Penguin Attack';-inkscape-font-specification:'Penguin Attack, Normal';font-variant-ligatures:normal;font-variant-caps:normal;font-variant-numeric:normal;font-feature-settings:normal;text-align:start;letter-spacing:0px;word-spacing:0px;writing-mode:lr-tb;text-anchor:start;fill:#ffffff;fill-opacity:1;stroke:none;stroke-width:0.0335528;stroke-linecap:butt;stroke-linejoin:miter;stroke-miterlimit:4;stroke-dasharray:none;stroke-dashoffset:0;stroke-opacity:1"
           id="path888"
           inkscape:connector-curvature="0"
           sodipodi:nodetypes="ccccccccccccccccccccccccccccsccccccccccccccccccccccccccccccccc" />
      </g>
      <ellipse
         transform="rotate(-29.584938)"
         ry="0.39420444"
         rx="0.42848295"
         cy="257.38953"
         cx="-141.48131"
         id="ellipse892"
         style="opacity:1;vector-effect:none;fill:#ffffff;fill-opacity:1;fill-rule:nonzero;stroke:none;stroke-width:0.0548458;stroke-linecap:butt;stroke-linejoin:miter;stroke-miterlimit:4;stroke-dasharray:none;stroke-dashoffset:0;stroke-opacity:1" />
    </g>
    <g
       inkscape:export-filename="C:\Users\Sicut\Documents\Some miniprojects\Vu Extension\Vu 1.2\icons\64x64.png"
       id="g906"
       transform="matrix(3.4570421,0,0,3.4570419,9.5766686,-701.2883)"
       inkscape:export-xdpi="96"
       inkscape:export-ydpi="96">
      <ellipse
         cy="294.48645"
         cx="2.5135417"
         id="ellipse896"
         style="opacity:1;vector-effect:none;fill:#9c27b0;fill-opacity:1;fill-rule:nonzero;stroke:#673ab7;stroke-width:0.0262929;stroke-linecap:butt;stroke-linejoin:miter;stroke-miterlimit:4;stroke-dasharray:none;stroke-dashoffset:0;stroke-opacity:1"
         rx="2.4359608"
         ry="2.435961"
         inkscape:export-xdpi="96"
         inkscape:export-ydpi="96" />
      <g
         style="fill:#f4e86c;stroke:#002b22;stroke-width:0.0324808;stroke-miterlimit:4;stroke-dasharray:none"
         transform="matrix(1.1308464,-0.1796682,0.2171997,1.5413117,-64.063592,-159.06674)"
         id="g902">
        <path
           d="m 1.3292749,295.11364 c 0.057753,0.002 0.1152368,0.0128 0.1723314,0.0293 0.058261,0.0163 0.1078987,0.0428 0.1488924,0.079 0.2889316,0.28158 0.1194709,0.4539 -0.090029,0.4446 -0.4414413,-0.0284 -1.16814545,-0.40794 -1.42342432,-0.95387 -0.012311,-0.0539 -0.0126919,-0.10616 -0.001135,-0.15659 0.0115498,-0.0505 0.0396673,-0.0961 0.084364,-0.13666 0.071975,-0.0654 0.15852554,-0.10526 0.25965959,-0.11944 0.10104038,-0.0162 0.210765,-0.0131 0.32919365,0.01 0.11840057,0.0226 0.24365668,0.0612 0.37575488,0.11547 0.1321291,0.0543 0.2657241,0.11782 0.4007847,0.19046 0.1361875,0.0717 0.2714737,0.14935 0.4058671,0.23312 0.1344007,0.0838 0.2625634,0.16692 0.3844918,0.24941 0.1229899,0.0815 0.2373772,0.15934 0.3431624,0.23341 0.1068397,0.0732 0.2002925,0.13632 0.2803699,0.18961 0.081183,0.0522 0.1460076,0.091 0.1944728,0.11637 0.048372,0.0233 0.076771,0.0268 0.085224,0.0111 0.012601,-0.024 0.00922,-0.0662 -0.010112,-0.1264 -0.019341,-0.0602 -0.049884,-0.13228 -0.09163,-0.2162 -0.04182,-0.0859 -0.092484,-0.18074 -0.1519786,-0.28428 -0.059565,-0.10558 -0.1232621,-0.2158 -0.1910968,-0.33066 -0.069001,-0.11593 -0.1403579,-0.23391 -0.2140707,-0.35395 -0.073752,-0.12212 -0.1451489,-0.24112 -0.214191,-0.35698 -0.069001,-0.11592 -0.1333265,-0.22768 -0.1929778,-0.33528 -0.05963,-0.10762 -0.1104099,-0.20543 -0.1523423,-0.29342 -0.04311,-0.089 -0.074403,-0.16566 -0.093882,-0.22991 -0.019497,-0.0642 -0.023662,-0.11194 -0.012495,-0.14314 0.015734,-0.002 0.038092,-0.007 0.067054,-0.0169 0.027835,-0.0107 0.057328,-0.0216 0.08847,-0.033 0.031137,-0.0115 0.6645846,0.37408 0.6924769,0.36346 0.027835,-0.0107 0.049585,-0.0177 0.065229,-0.0215 -0.039192,0.0398 -0.055028,0.0961 -0.047488,0.16932 0.00739,0.0731 0.03055,0.1582 0.069473,0.25526 0.037682,0.0959 0.088788,0.20197 0.153301,0.31775 0.064497,0.11581 0.1348466,0.23681 0.2110443,0.363 0.077258,0.12523 0.1574748,0.253 0.2406494,0.38335 0.083057,0.12837 0.1626935,0.25565 0.2389076,0.38182 0.07503,0.12514 0.1436565,0.24559 0.2058791,0.36137 0.062217,0.11577 0.1116446,0.22217 0.1482831,0.31918 0.035464,0.0961 0.054092,0.18097 0.055891,0.25497 0.00291,0.0731 -0.017458,0.12937 -0.061085,0.16904 -0.052333,0.0476 -0.1216779,0.0655 -0.2080371,0.0537 -0.08637,-0.0138 -0.1860014,-0.0474 -0.2988798,-0.10024 -0.1128965,-0.0551 -0.2359497,-0.12386 -0.3691705,-0.2066 -0.1332864,-0.0848 -0.2724558,-0.17473 -0.4175107,-0.26984 -0.1449949,-0.0951 -0.292825,-0.18983 -0.4434845,-0.28402 -0.1507309,-0.0963 -0.2993125,-0.18185 -0.4457464,-0.25679 -0.1465439,-0.0769 -0.2891024,-0.13856 -0.4276711,-0.18492 -0.1374971,-0.0473 -0.2660858,-0.0702 -0.3857628,-0.0686 -0.059849,0.002 -0.10052211,0.016 -0.12209042,0.0416 -0.0227976,0.0247 -0.0323125,0.0555 -0.0285593,0.0921 0.004804,0.0356 0.0198617,0.0734 0.0451696,0.1134 0.0241245,0.039 0.0531775,0.0734 0.0871701,0.10361 0.033938,0.0301 0.07746,0.0588 0.1305666,0.0862 0.052937,0.0254 0.1051894,0.0461 0.15676,0.0624 0.0514,0.0142 0.096286,0.0206 0.1346617,0.0193 0.038305,-0.003 0.059635,-0.0186 0.064003,-0.0462 0.00254,-0.0212 -0.00266,-0.0386 -0.015592,-0.0519 -0.014182,-0.0144 -0.032706,-0.0259 -0.055569,-0.0345 -0.022917,-0.009 -0.047453,-0.0146 -0.073612,-0.0182 -0.027299,-0.005 -0.05174,-0.008 -0.073284,-0.01 z"
           style="font-style:normal;font-variant:normal;font-weight:normal;font-stretch:normal;font-size:4.23333px;line-height:1.25;font-family:'Penguin Attack';-inkscape-font-specification:'Penguin Attack, Normal';font-variant-ligatures:normal;font-variant-caps:normal;font-variant-numeric:normal;font-feature-settings:normal;text-align:start;letter-spacing:0px;word-spacing:0px;writing-mode:lr-tb;text-anchor:start;fill:#673ab7;fill-opacity:1;stroke:none;stroke-width:0.035684;stroke-linecap:butt;stroke-linejoin:miter;stroke-miterlimit:4;stroke-dasharray:none;stroke-dashoffset:0;stroke-opacity:1"
           id="path898"
           inkscape:connector-curvature="0"
           sodipodi:nodetypes="ccccccccccccccccccccccccccccsccccccccccccccccccccccccccccccccc" />
        <path
           sodipodi:nodetypes="ccccccccccccccccccccccccccccsccccccccccccccccccccccccccccccccc"
           inkscape:connector-curvature="0"
           id="path900"
           style="font-style:normal;font-variant:normal;font-weight:normal;font-stretch:normal;font-size:4.23333px;line-height:1.25;font-family:'Penguin Attack';-inkscape-font-specification:'Penguin Attack, Normal';font-variant-ligatures:normal;font-variant-caps:normal;font-variant-numeric:normal;font-feature-settings:normal;text-align:start;letter-spacing:0px;word-spacing:0px;writing-mode:lr-tb;text-anchor:start;fill:#ffffff;fill-opacity:1;stroke:none;stroke-width:0.0335528;stroke-linecap:butt;stroke-linejoin:miter;stroke-miterlimit:4;stroke-dasharray:none;stroke-dashoffset:0;stroke-opacity:1"
           d="m 1.4721705,295.10818 c 0.052731,0.002 0.1051313,0.0116 0.1571105,0.0274 0.053042,0.0153 0.098101,0.0406 0.1351624,0.0756 0.2609129,0.27066 0.1042734,0.43858 -0.086996,0.43094 -0.4029319,-0.0246 -1.062687,-0.38728 -1.29002906,-0.91403 -0.0106687,-0.0522 -0.0104568,-0.10266 6.401e-4,-0.15159 0.0110915,-0.0489 0.0372636,-0.0932 0.0785257,-0.13283 0.0664477,-0.0637 0.145934,-0.10291 0.23846737,-0.11729 0.0924662,-0.0165 0.1926735,-0.0138 0.30060539,0.008 0.1079173,0.0213 0.221915,0.0577 0.3419999,0.10931 0.1201111,0.0516 0.2414669,0.1123 0.3640621,0.18175 0.1236372,0.0686 0.2463817,0.1428 0.3682473,0.223 0.1218757,0.0803 0.2380538,0.15986 0.3485481,0.23892 0.1114742,0.0781 0.2151284,0.15269 0.3109668,0.22371 0.096809,0.0701 0.1814996,0.13065 0.2540766,0.1817 0.073601,0.05 0.1324012,0.0873 0.1763969,0.11137 0.043935,0.0222 0.069836,0.0253 0.077723,0.01 0.011768,-0.0233 0.00913,-0.0642 -0.0079,-0.12227 -0.01702,-0.0582 -0.04415,-0.12772 -0.081386,-0.20867 -0.037282,-0.0829 -0.082544,-0.17435 -0.1357826,-0.27418 -0.053282,-0.10182 -0.1102842,-0.20809 -0.1710192,-0.31881 -0.061788,-0.11179 -0.1257085,-0.22553 -0.1917565,-0.34124 -0.066061,-0.11771 -0.1300063,-0.23242 -0.1918334,-0.34414 -0.061788,-0.11176 -0.1193511,-0.21951 -0.1726887,-0.3233 -0.053317,-0.10378 -0.098657,-0.1981 -0.1360165,-0.283 -0.038425,-0.0858 -0.06619,-0.15987 -0.083298,-0.22195 -0.017122,-0.062 -0.020416,-0.10818 -0.00988,-0.13846 0.014398,-0.002 0.034898,-0.006 0.061434,-0.0167 0.025542,-0.0104 0.052593,-0.0214 0.081168,-0.0325 0.028566,-0.0114 0.6030664,0.35774 0.6286583,0.34728 0.025541,-0.0104 0.04548,-0.0175 0.059819,-0.0212 -0.036226,0.0388 -0.051294,0.0934 -0.045192,0.1642 0.00598,0.0708 0.026211,0.15294 0.060727,0.24664 0.033396,0.0927 0.078942,0.19491 0.1366319,0.30655 0.057679,0.11171 0.1206421,0.22836 0.1888951,0.35001 0.069232,0.12073 0.1411387,0.24388 0.2157196,0.3695 0.074492,0.1237 0.1458775,0.2464 0.214145,0.36803 0.067197,0.12064 0.1285959,0.2368 0.1841942,0.34846 0.055593,0.11166 0.099604,0.21433 0.1320328,0.30797 0.031367,0.0928 0.047472,0.17481 0.048325,0.24644 0.00187,0.0707 -0.017333,0.12535 -0.05761,0.16403 -0.048313,0.0464 -0.1118515,0.0641 -0.1906119,0.0532 -0.078743,-0.0127 -0.1693943,-0.0446 -0.2719443,-0.0952 -0.1025355,-0.0525 -0.214205,-0.11837 -0.3350113,-0.1976 -0.1208414,-0.0812 -0.247007,-0.16736 -0.3784907,-0.25847 -0.1314293,-0.0912 -0.2654511,-0.18184 -0.4020645,-0.27204 -0.1366568,-0.0922 -0.2714632,-0.17407 -0.4044228,-0.24566 -0.1330337,-0.0733 -0.2626007,-0.13225 -0.3886805,-0.17621 -0.125095,-0.045 -0.2423075,-0.0662 -0.3516437,-0.0638 -0.05474,6.9e-4 -0.091991,0.0162 -0.1119673,0.0411 -0.021089,0.024 -0.030109,0.0539 -0.027073,0.0894 0.00401,0.0345 0.017357,0.0709 0.040046,0.10948 0.021621,0.0376 0.047795,0.0709 0.078515,0.0996 0.030682,0.029 0.070125,0.0563 0.1183443,0.0826 0.048087,0.0243 0.09559,0.0439 0.1425268,0.0595 0.046803,0.0135 0.08773,0.0193 0.1228016,0.0178 0.035042,-0.003 0.054675,-0.0183 0.058963,-0.045 0.00256,-0.0206 -0.00201,-0.0374 -0.013682,-0.0502 -0.012806,-0.0139 -0.029601,-0.0249 -0.050395,-0.0332 -0.020843,-0.009 -0.04319,-0.0138 -0.067044,-0.017 -0.024893,-0.005 -0.047188,-0.008 -0.066858,-0.01 z" />
      </g>
      <ellipse
         style="opacity:1;vector-effect:none;fill:#ffffff;fill-opacity:1;fill-rule:nonzero;stroke:none;stroke-width:0.0548458;stroke-linecap:butt;stroke-linejoin:miter;stroke-miterlimit:4;stroke-dasharray:none;stroke-dashoffset:0;stroke-opacity:1"
         id="ellipse904"
         cx="-141.48131"
         cy="257.38953"
         rx="0.42848295"
         ry="0.39420444"
         transform="rotate(-29.584938)" />
    </g>
    <g
       inkscape:export-filename="C:\Users\Sicut\Documents\Some miniprojects\Vu Extension\Vu 1.2\icons\128x128.png"
       inkscape:export-ydpi="96"
       inkscape:export-xdpi="96"
       transform="matrix(6.9140841,0,0,6.9140837,41.346078,-1744.9237)"
       id="g918">
      <ellipse
         inkscape:export-ydpi="96"
         inkscape:export-xdpi="96"
         ry="2.435961"
         rx="2.4359608"
         style="opacity:1;vector-effect:none;fill:#9c27b0;fill-opacity:1;fill-rule:nonzero;stroke:#673ab7;stroke-width:0.0262929;stroke-linecap:butt;stroke-linejoin:miter;stroke-miterlimit:4;stroke-dasharray:none;stroke-dashoffset:0;stroke-opacity:1"
         id="ellipse908"
         cx="2.5135417"
         cy="294.48645" />
      <g
         id="g914"
         transform="matrix(1.1308464,-0.1796682,0.2171997,1.5413117,-64.063592,-159.06674)"
         style="fill:#f4e86c;stroke:#002b22;stroke-width:0.0324808;stroke-miterlimit:4;stroke-dasharray:none">
        <path
           sodipodi:nodetypes="ccccccccccccccccccccccccccccsccccccccccccccccccccccccccccccccc"
           inkscape:connector-curvature="0"
           id="path910"
           style="font-style:normal;font-variant:normal;font-weight:normal;font-stretch:normal;font-size:4.23333px;line-height:1.25;font-family:'Penguin Attack';-inkscape-font-specification:'Penguin Attack, Normal';font-variant-ligatures:normal;font-variant-caps:normal;font-variant-numeric:normal;font-feature-settings:normal;text-align:start;letter-spacing:0px;word-spacing:0px;writing-mode:lr-tb;text-anchor:start;fill:#673ab7;fill-opacity:1;stroke:none;stroke-width:0.035684;stroke-linecap:butt;stroke-linejoin:miter;stroke-miterlimit:4;stroke-dasharray:none;stroke-dashoffset:0;stroke-opacity:1"
           d="m 1.3292749,295.11364 c 0.057753,0.002 0.1152368,0.0128 0.1723314,0.0293 0.058261,0.0163 0.1078987,0.0428 0.1488924,0.079 0.2889316,0.28158 0.1194709,0.4539 -0.090029,0.4446 -0.4414413,-0.0284 -1.16814545,-0.40794 -1.42342432,-0.95387 -0.012311,-0.0539 -0.0126919,-0.10616 -0.001135,-0.15659 0.0115498,-0.0505 0.0396673,-0.0961 0.084364,-0.13666 0.071975,-0.0654 0.15852554,-0.10526 0.25965959,-0.11944 0.10104038,-0.0162 0.210765,-0.0131 0.32919365,0.01 0.11840057,0.0226 0.24365668,0.0612 0.37575488,0.11547 0.1321291,0.0543 0.2657241,0.11782 0.4007847,0.19046 0.1361875,0.0717 0.2714737,0.14935 0.4058671,0.23312 0.1344007,0.0838 0.2625634,0.16692 0.3844918,0.24941 0.1229899,0.0815 0.2373772,0.15934 0.3431624,0.23341 0.1068397,0.0732 0.2002925,0.13632 0.2803699,0.18961 0.081183,0.0522 0.1460076,0.091 0.1944728,0.11637 0.048372,0.0233 0.076771,0.0268 0.085224,0.0111 0.012601,-0.024 0.00922,-0.0662 -0.010112,-0.1264 -0.019341,-0.0602 -0.049884,-0.13228 -0.09163,-0.2162 -0.04182,-0.0859 -0.092484,-0.18074 -0.1519786,-0.28428 -0.059565,-0.10558 -0.1232621,-0.2158 -0.1910968,-0.33066 -0.069001,-0.11593 -0.1403579,-0.23391 -0.2140707,-0.35395 -0.073752,-0.12212 -0.1451489,-0.24112 -0.214191,-0.35698 -0.069001,-0.11592 -0.1333265,-0.22768 -0.1929778,-0.33528 -0.05963,-0.10762 -0.1104099,-0.20543 -0.1523423,-0.29342 -0.04311,-0.089 -0.074403,-0.16566 -0.093882,-0.22991 -0.019497,-0.0642 -0.023662,-0.11194 -0.012495,-0.14314 0.015734,-0.002 0.038092,-0.007 0.067054,-0.0169 0.027835,-0.0107 0.057328,-0.0216 0.08847,-0.033 0.031137,-0.0115 0.6645846,0.37408 0.6924769,0.36346 0.027835,-0.0107 0.049585,-0.0177 0.065229,-0.0215 -0.039192,0.0398 -0.055028,0.0961 -0.047488,0.16932 0.00739,0.0731 0.03055,0.1582 0.069473,0.25526 0.037682,0.0959 0.088788,0.20197 0.153301,0.31775 0.064497,0.11581 0.1348466,0.23681 0.2110443,0.363 0.077258,0.12523 0.1574748,0.253 0.2406494,0.38335 0.083057,0.12837 0.1626935,0.25565 0.2389076,0.38182 0.07503,0.12514 0.1436565,0.24559 0.2058791,0.36137 0.062217,0.11577 0.1116446,0.22217 0.1482831,0.31918 0.035464,0.0961 0.054092,0.18097 0.055891,0.25497 0.00291,0.0731 -0.017458,0.12937 -0.061085,0.16904 -0.052333,0.0476 -0.1216779,0.0655 -0.2080371,0.0537 -0.08637,-0.0138 -0.1860014,-0.0474 -0.2988798,-0.10024 -0.1128965,-0.0551 -0.2359497,-0.12386 -0.3691705,-0.2066 -0.1332864,-0.0848 -0.2724558,-0.17473 -0.4175107,-0.26984 -0.1449949,-0.0951 -0.292825,-0.18983 -0.4434845,-0.28402 -0.1507309,-0.0963 -0.2993125,-0.18185 -0.4457464,-0.25679 -0.1465439,-0.0769 -0.2891024,-0.13856 -0.4276711,-0.18492 -0.1374971,-0.0473 -0.2660858,-0.0702 -0.3857628,-0.0686 -0.059849,0.002 -0.10052211,0.016 -0.12209042,0.0416 -0.0227976,0.0247 -0.0323125,0.0555 -0.0285593,0.0921 0.004804,0.0356 0.0198617,0.0734 0.0451696,0.1134 0.0241245,0.039 0.0531775,0.0734 0.0871701,0.10361 0.033938,0.0301 0.07746,0.0588 0.1305666,0.0862 0.052937,0.0254 0.1051894,0.0461 0.15676,0.0624 0.0514,0.0142 0.096286,0.0206 0.1346617,0.0193 0.038305,-0.003 0.059635,-0.0186 0.064003,-0.0462 0.00254,-0.0212 -0.00266,-0.0386 -0.015592,-0.0519 -0.014182,-0.0144 -0.032706,-0.0259 -0.055569,-0.0345 -0.022917,-0.009 -0.047453,-0.0146 -0.073612,-0.0182 -0.027299,-0.005 -0.05174,-0.008 -0.073284,-0.01 z" />
        <path
           d="m 1.4721705,295.10818 c 0.052731,0.002 0.1051313,0.0116 0.1571105,0.0274 0.053042,0.0153 0.098101,0.0406 0.1351624,0.0756 0.2609129,0.27066 0.1042734,0.43858 -0.086996,0.43094 -0.4029319,-0.0246 -1.062687,-0.38728 -1.29002906,-0.91403 -0.0106687,-0.0522 -0.0104568,-0.10266 6.401e-4,-0.15159 0.0110915,-0.0489 0.0372636,-0.0932 0.0785257,-0.13283 0.0664477,-0.0637 0.145934,-0.10291 0.23846737,-0.11729 0.0924662,-0.0165 0.1926735,-0.0138 0.30060539,0.008 0.1079173,0.0213 0.221915,0.0577 0.3419999,0.10931 0.1201111,0.0516 0.2414669,0.1123 0.3640621,0.18175 0.1236372,0.0686 0.2463817,0.1428 0.3682473,0.223 0.1218757,0.0803 0.2380538,0.15986 0.3485481,0.23892 0.1114742,0.0781 0.2151284,0.15269 0.3109668,0.22371 0.096809,0.0701 0.1814996,0.13065 0.2540766,0.1817 0.073601,0.05 0.1324012,0.0873 0.1763969,0.11137 0.043935,0.0222 0.069836,0.0253 0.077723,0.01 0.011768,-0.0233 0.00913,-0.0642 -0.0079,-0.12227 -0.01702,-0.0582 -0.04415,-0.12772 -0.081386,-0.20867 -0.037282,-0.0829 -0.082544,-0.17435 -0.1357826,-0.27418 -0.053282,-0.10182 -0.1102842,-0.20809 -0.1710192,-0.31881 -0.061788,-0.11179 -0.1257085,-0.22553 -0.1917565,-0.34124 -0.066061,-0.11771 -0.1300063,-0.23242 -0.1918334,-0.34414 -0.061788,-0.11176 -0.1193511,-0.21951 -0.1726887,-0.3233 -0.053317,-0.10378 -0.098657,-0.1981 -0.1360165,-0.283 -0.038425,-0.0858 -0.06619,-0.15987 -0.083298,-0.22195 -0.017122,-0.062 -0.020416,-0.10818 -0.00988,-0.13846 0.014398,-0.002 0.034898,-0.006 0.061434,-0.0167 0.025542,-0.0104 0.052593,-0.0214 0.081168,-0.0325 0.028566,-0.0114 0.6030664,0.35774 0.6286583,0.34728 0.025541,-0.0104 0.04548,-0.0175 0.059819,-0.0212 -0.036226,0.0388 -0.051294,0.0934 -0.045192,0.1642 0.00598,0.0708 0.026211,0.15294 0.060727,0.24664 0.033396,0.0927 0.078942,0.19491 0.1366319,0.30655 0.057679,0.11171 0.1206421,0.22836 0.1888951,0.35001 0.069232,0.12073 0.1411387,0.24388 0.2157196,0.3695 0.074492,0.1237 0.1458775,0.2464 0.214145,0.36803 0.067197,0.12064 0.1285959,0.2368 0.1841942,0.34846 0.055593,0.11166 0.099604,0.21433 0.1320328,0.30797 0.031367,0.0928 0.047472,0.17481 0.048325,0.24644 0.00187,0.0707 -0.017333,0.12535 -0.05761,0.16403 -0.048313,0.0464 -0.1118515,0.0641 -0.1906119,0.0532 -0.078743,-0.0127 -0.1693943,-0.0446 -0.2719443,-0.0952 -0.1025355,-0.0525 -0.214205,-0.11837 -0.3350113,-0.1976 -0.1208414,-0.0812 -0.247007,-0.16736 -0.3784907,-0.25847 -0.1314293,-0.0912 -0.2654511,-0.18184 -0.4020645,-0.27204 -0.1366568,-0.0922 -0.2714632,-0.17407 -0.4044228,-0.24566 -0.1330337,-0.0733 -0.2626007,-0.13225 -0.3886805,-0.17621 -0.125095,-0.045 -0.2423075,-0.0662 -0.3516437,-0.0638 -0.05474,6.9e-4 -0.091991,0.0162 -0.1119673,0.0411 -0.021089,0.024 -0.030109,0.0539 -0.027073,0.0894 0.00401,0.0345 0.017357,0.0709 0.040046,0.10948 0.021621,0.0376 0.047795,0.0709 0.078515,0.0996 0.030682,0.029 0.070125,0.0563 0.1183443,0.0826 0.048087,0.0243 0.09559,0.0439 0.1425268,0.0595 0.046803,0.0135 0.08773,0.0193 0.1228016,0.0178 0.035042,-0.003 0.054675,-0.0183 0.058963,-0.045 0.00256,-0.0206 -0.00201,-0.0374 -0.013682,-0.0502 -0.012806,-0.0139 -0.029601,-0.0249 -0.050395,-0.0332 -0.020843,-0.009 -0.04319,-0.0138 -0.067044,-0.017 -0.024893,-0.005 -0.047188,-0.008 -0.066858,-0.01 z"
           style="font-style:normal;font-variant:normal;font-weight:normal;font-stretch:normal;font-size:4.23333px;line-height:1.25;font-family:'Penguin Attack';-inkscape-font-specification:'Penguin Attack, Normal';font-variant-ligatures:normal;font-variant-caps:normal;font-variant-numeric:normal;font-feature-settings:normal;text-align:start;letter-spacing:0px;word-spacing:0px;writing-mode:lr-tb;text-anchor:start;fill:#ffffff;fill-opacity:1;stroke:none;stroke-width:0.0335528;stroke-linecap:butt;stroke-linejoin:miter;stroke-miterlimit:4;stroke-dasharray:none;stroke-dashoffset:0;stroke-opacity:1"
           id="path912"
           inkscape:connector-curvature="0"
           sodipodi:nodetypes="ccccccccccccccccccccccccccccsccccccccccccccccccccccccccccccccc" />
      </g>
      <ellipse
         transform="rotate(-29.584938)"
         ry="0.39420444"
         rx="0.42848295"
         cy="257.38953"
         cx="-141.48131"
         id="ellipse916"
         style="opacity:1;vector-effect:none;fill:#ffffff;fill-opacity:1;fill-rule:nonzero;stroke:none;stroke-width:0.0548458;stroke-linecap:butt;stroke-linejoin:miter;stroke-miterlimit:4;stroke-dasharray:none;stroke-dashoffset:0;stroke-opacity:1" />
    </g>
  </g>
</svg>
